# xmcd CD database file
#
# Track frame offsets:
#	182
#	26807
#	59272
#	83555
#	111025
#	124457
#	149352
#	173910
#	203112
#	222942
#	244202
#	256682
#	276132
#	289702
#
# Disc length: 4102 seconds
#
# Revision: 0
# Processed by: cddbd v1.5.2PL0 Copyright (c) Steve Scherf et al.
# Submitted via: CDex 1.70beta2
#
DISCID=d110040e
DTITLE=Various Artist - takin' off - Jazz from Britain in the 90's
DYEAR=1900
DGENRE=Jazz
TTITLE0=Jupiter Collision - Rude
TTITLE1=Lush Life - Mornigton Lockett
TTITLE2=Rio - Sax Appeal Rio
TTITLE3=Hollyhocks - Django Bates
TTITLE4=Busy Listening - Steve Arguelles
TTITLE5=Fall - Jason Rebello
TTITLE6=Serendipity - Iain Ballamy
TTITLE7=Jihad - Mo Nazam
TTITLE8=Rock Rock Rock - Anita Carmichael
TTITLE9=Walkin' in the Right Path - Kevein Haynes Grupa Eleggua
TTITLE10=A new Summer - Chris Garrick's The Secret Light Show
TTITLE11=Assurance - Ike Leo's Acacia
TTITLE12=Kornography - Lammas
TTITLE13=Barbados - Jass Jamaica
EXTD=
EXTT0=
EXTT1=
EXTT2=
EXTT3=
EXTT4=
EXTT5=
EXTT6=
EXTT7=
EXTT8=
EXTT9=
EXTT10=
EXTT11=
EXTT12=
EXTT13=
PLAYORDER=
